<svg width="48" height="48" viewBox="0 0 48 48" fill="none" xmlns="http://www.w3.org/2000/svg">
<g transform="translate(9 0.5)">
<path d="M18.75 17.3382H23.5316C25.1787 17.4559 29.1787 15.9265 28.4728 11.6912C28.2483 10.3442 27.1028 7.71224 24.3008 7.47334C24.0654 7.45327 23.867 7.27801 23.8294 7.04484C23.4534 4.71607 21.7867 0.75 17.5316 0.75C13.4632 0.75 11.1885 2.84909 10.3468 4.21173C10.2093 4.43429 9.92544 4.53462 9.67943 4.44567C8.74435 4.10757 6.998 3.79975 5.33824 4.98529C3.68268 6.16783 3.36795 7.68055 3.37854 8.48632C3.38146 8.70879 3.26298 8.92573 3.06567 9.02853C1.86674 9.65317 0.174633 11.2466 0.9433 13.8088C1.79036 16.6324 4.5904 17.3382 5.88454 17.3382H11.6912" stroke="#96BCFC" stroke-width="1.5" stroke-linecap="round"/>
<path d="M18.5898 21.0884L15.7397 23.9385C15.5595 24.1188 15.2673 24.1188 15.087 23.9385L12.2369 21.0884" stroke="#96BCFC" stroke-width="1.5" stroke-linecap="round"/>
<path d="M15.4141 15.5737L15.4141 23.3384" stroke="#96BCFC" stroke-width="1.5" stroke-linecap="round"/>
<circle cx="21.0608" cy="43.4559" r="1.05882" fill="#528AE9"/>
<rect x="5.88477" y="40.9854" width="18.3529" height="4.94118" rx="2.11765" stroke="#528AE9" stroke-width="1.5" stroke-linecap="round"/>
<path d="M5.88477 42.3973L7.29653 31.4561C7.41418 30.8679 8.00241 29.6914 9.41418 29.6914C10.8259 29.6914 17.5318 29.6914 20.7083 29.6914C21.2566 29.6914 22.4477 30.0443 22.8259 31.4561C23.2042 32.8679 23.9247 39.1032 24.2377 42.0443" stroke="#528AE9" stroke-width="1.5" stroke-linecap="round"/>
</g>
</svg>
