<svg width="48" height="48" viewBox="0 0 48 48" xmlns="http://www.w3.org/2000/svg"><path d="M28 17.588h4.782c1.647.118 5.647-1.412 4.94-5.647-.224-1.347-1.37-3.979-4.171-4.218a.52.52 0 0 1-.472-.428C32.703 4.966 31.037 1 26.782 1c-4.069 0-6.343 2.1-7.185 3.462a.567.567 0 0 1-.668.234c-.935-.338-2.681-.646-4.34.54-1.656 1.182-1.971 2.695-1.96 3.5a.604.604 0 0 1-.313.543c-1.2.624-2.891 2.218-2.123 4.78.847 2.823 3.647 3.53 4.941 3.53h5.807M27.84 21.338l-2.85 2.85a.461.461 0 0 1-.653 0l-2.85-2.85M24.664 15.824v7.764" stroke="#96BCFC" stroke-width="1.5" stroke-linecap="round"/><circle cx="30.311" cy="43.706" r="1.059"/><rect x="15.135" y="41.235" width="18.353" height="4.941" rx="2.118" stroke="#528AE9" stroke-width="1.5" stroke-linecap="round"/><path d="m15.135 42.647 1.412-10.94c.117-.59.705-1.766 2.117-1.766h11.294c.549 0 1.74.353 2.118 1.765.378 1.412 1.099 7.647 1.412 10.588" stroke="#528AE9" stroke-width="1.5" stroke-linecap="round"/></svg>