<svg width="30" height="47" viewBox="0 0 30 47" xmlns="http://www.w3.org/2000/svg">
<path d="M18.75 17.3382H23.5316C25.1787 17.4559 29.1787 15.9265 28.4728 11.6912C28.2483 10.3442 27.1028 7.71224 24.3008 7.47334C24.0654 7.45327 23.867 7.27801 23.8294 7.04484C23.4534 4.71607 21.7867 0.75 17.5316 0.75C13.4632 0.75 11.1885 2.84909 10.3468 4.21173C10.2093 4.43429 9.92544 4.53462 9.67943 4.44567C8.74435 4.10757 6.998 3.79975 5.33824 4.98529C3.68268 6.16783 3.36795 7.68055 3.37854 8.48632C3.38146 8.70879 3.26298 8.92573 3.06567 9.02853C1.86674 9.65317 0.174633 11.2466 0.9433 13.8088C1.79036 16.6324 4.5904 17.3382 5.88454 17.3382H11.6912" stroke="#96BCFC" stroke-width="1.5" stroke-linecap="round"/>
<path d="M18.5908 21.0884L15.7407 23.9385C15.5605 24.1188 15.2682 24.1188 15.088 23.9385L12.2379 21.0884" stroke="#96BCFC" stroke-width="1.5" stroke-linecap="round"/>
<path d="M15.415 15.5737L15.415 23.3384" stroke="#96BCFC" stroke-width="1.5" stroke-linecap="round"/>
<circle cx="21.0618" cy="43.4559" r="1.05882" />
<rect x="5.88379" y="40.9854" width="18.3529" height="4.94118" rx="2.11765" stroke="#528AE9" stroke-width="1.5" stroke-linecap="round"/>
<path d="M5.88379 42.3973L7.29555 31.4561C7.4132 30.8679 8.00144 29.6914 9.4132 29.6914C10.825 29.6914 17.5308 29.6914 20.7073 29.6914C21.2556 29.6914 22.4467 30.0443 22.825 31.4561C23.2032 32.8679 23.9238 39.1032 24.2367 42.0443" stroke="#528AE9" stroke-width="1.5" stroke-linecap="round"/>
</svg>
