<svg width="48" height="48" viewBox="0 0 48 48" xmlns="http://www.w3.org/2000/svg"><path d="M35.827 22.308c.462-1.077 0-4.154-2.307-6-1.848-1.479-4.09-1.576-5.306-1.24-.336.093-.777-.096-.875-.43C26.58 12.048 24.107 8 18.75 8c-7.202 0-9.277 3.95-10.522 8.427a.486.486 0 0 1-.446.352C5.233 16.914.75 18.516.75 24.154c0 5.539 5.539 6.462 7.385 6.462h5.538M27.058 30.616h-5.077M21.981 35.231l-3.827 3.828a.462.462 0 0 1-.653 0l-3.827-3.828M17.827 22.77v16.615" stroke="#96BCFC" stroke-width="1.5" stroke-linecap="round"/><path d="M29.827 40.308h17.077c1.477 0 1.846-1.23 1.846-1.846V28.308c0-1.846-1.538-2.308-2.307-2.308h-7.385c-1.385 0-1.508-.461-2.308-1.846-.64-1.108-1.497-1.385-1.846-1.385h-6c-1.477 0-1.846 1.231-1.846 1.847v12.923c0 2.215 1.846 2.77 2.769 2.77Z" stroke="#528AE9" stroke-width="1.5" stroke-linecap="round"/></svg>
