<svg width="48" height="48" viewBox="0 0 48 48" fill="none" xmlns="http://www.w3.org/2000/svg">
<g transform="translate(1 8)">
<path d="M33.0715 13.8996C33.4975 12.9055 33.0715 10.0653 30.9413 8.36108C29.2355 6.99642 27.1654 6.90668 26.0437 7.21677C25.7338 7.30244 25.3261 7.12825 25.2357 6.81969C24.5354 4.42885 22.2528 0.692322 17.308 0.692322C10.66 0.692322 8.74477 4.33923 7.59514 8.47159C7.54346 8.65736 7.3763 8.78572 7.18374 8.7959C4.83073 8.92032 0.692383 10.3998 0.692383 15.6037C0.692383 20.7162 5.80487 21.5683 7.50903 21.5683C8.87236 21.5683 11.4854 21.5683 12.6215 21.5683" stroke="#96BCFC" stroke-width="1.38462" stroke-linecap="round"/>
<path d="M24.9775 21.5682H20.291" stroke="#96BCFC" stroke-width="1.38462" stroke-linecap="round"/>
<path d="M20.291 25.8287L16.7579 29.3618C16.5915 29.5281 16.3218 29.5281 16.1554 29.3618L12.6223 25.8287" stroke="#96BCFC" stroke-width="1.38462" stroke-linecap="round"/>
<path d="M16.4561 14.3256L16.4561 29.663" stroke="#96BCFC" stroke-width="1.38462" stroke-linecap="round"/>
<path d="M27.5328 30.5152H43.2963C44.6596 30.5152 45.0005 29.3791 45.0005 28.811V19.4381C45.0005 17.7339 43.5803 17.3079 42.8703 17.3079H36.0536C34.7755 17.3079 34.6613 16.8819 33.9234 15.6037C33.3331 14.5812 32.5413 14.3256 32.2193 14.3256H26.6807C25.3174 14.3256 24.9766 15.4617 24.9766 16.0298V27.9589C24.9766 30.0039 26.6807 30.5152 27.5328 30.5152Z" stroke="#528AE9" stroke-width="1.38462" stroke-linecap="round"/>
</g>
</svg>
