<svg width="32" height="32" viewBox="0 0 32 32" fill="none" xmlns="http://www.w3.org/2000/svg">
<path fill-rule="evenodd" clip-rule="evenodd" d="M9.02481 14.0052C9.89614 10.9586 12.7075 8.70996 16.0244 8.70996C19.3168 8.70996 22.1138 10.9247 23.0074 13.937C23.7786 12.3577 25.3994 11.2571 27.2627 11.2571C29.8622 11.2571 32 13.394 32 15.9934C32 18.5929 29.8622 20.7307 27.2627 20.7307C25.3994 20.7307 23.7786 19.6295 23.0074 18.0499C22.1138 21.0624 19.3168 23.2779 16.0244 23.2779C12.7075 23.2779 9.89614 21.0285 9.02481 17.9816C8.26754 19.5979 6.6265 20.7307 4.7363 20.7307C2.13683 20.7307 0 18.5929 0 15.9934C0 13.394 2.13683 11.2571 4.7363 11.2571C6.6265 11.2571 8.26754 12.3893 9.02481 14.0052ZM20.5285 15.9934C20.5285 13.4895 18.5283 11.4903 16.0244 11.4903C13.5205 11.4903 11.5213 13.4895 11.5213 15.9934C11.5213 18.4973 13.5205 20.4975 16.0244 20.4975C18.5283 20.4975 20.5285 18.4973 20.5285 15.9934ZM4.7363 14.0374C5.8333 14.0374 6.69325 14.8964 6.69325 15.9934C6.69325 17.0904 5.8333 17.9504 4.7363 17.9504C3.63929 17.9504 2.78032 17.0904 2.78032 15.9934C2.78032 14.8964 3.63929 14.0374 4.7363 14.0374ZM29.2197 15.9934C29.2197 14.8964 28.3597 14.0374 27.2627 14.0374C26.1657 14.0374 25.3068 14.8964 25.3068 15.9934C25.3068 17.0904 26.1657 17.9504 27.2627 17.9504C28.3597 17.9504 29.2197 17.0904 29.2197 15.9934Z" fill="#0082C9"/>
</svg>
